<mxfile host="app.diagrams.net" modified="2022-02-24T23:29:15.154Z" agent="5.0 (Windows NT 10.0; Win64; x64) AppleWebKit/537.36 (KHTML, like Gecko) Chrome/98.0.4758.102 Safari/537.36" etag="u2R4Roj-obAWpdh6k13f" version="16.6.4" type="github">
  <diagram id="C5RBs43oDa-KdzZeNtuy" name="Page-1">
    <mxGraphModel dx="914" dy="507" grid="1" gridSize="10" guides="1" tooltips="1" connect="1" arrows="1" fold="1" page="1" pageScale="1" pageWidth="827" pageHeight="1169" math="0" shadow="0">
      <root>
        <mxCell id="WIyWlLk6GJQsqaUBKTNV-0" />
        <mxCell id="WIyWlLk6GJQsqaUBKTNV-1" parent="WIyWlLk6GJQsqaUBKTNV-0" />
        <mxCell id="VMHmmfdPvd_WCRzTMtE6-14" value="Locatario" style="swimlane;horizontal=0;" vertex="1" parent="WIyWlLk6GJQsqaUBKTNV-1">
          <mxGeometry x="40" y="70" width="880" height="200" as="geometry">
            <mxRectangle x="40" y="40" width="30" height="70" as="alternateBounds" />
          </mxGeometry>
        </mxCell>
        <mxCell id="VMHmmfdPvd_WCRzTMtE6-26" style="edgeStyle=orthogonalEdgeStyle;rounded=0;orthogonalLoop=1;jettySize=auto;html=1;exitX=0.5;exitY=0.5;exitDx=0;exitDy=0;exitPerimeter=0;entryX=0;entryY=0.5;entryDx=0;entryDy=0;" edge="1" parent="VMHmmfdPvd_WCRzTMtE6-14" source="VMHmmfdPvd_WCRzTMtE6-18" target="VMHmmfdPvd_WCRzTMtE6-20">
          <mxGeometry relative="1" as="geometry" />
        </mxCell>
        <mxCell id="VMHmmfdPvd_WCRzTMtE6-18" value="" style="shape=umlActor;verticalLabelPosition=bottom;verticalAlign=top;html=1;outlineConnect=0;" vertex="1" parent="VMHmmfdPvd_WCRzTMtE6-14">
          <mxGeometry x="50" y="70" width="30" height="60" as="geometry" />
        </mxCell>
        <mxCell id="VMHmmfdPvd_WCRzTMtE6-20" value="Cadastro" style="rounded=1;whiteSpace=wrap;html=1;" vertex="1" parent="VMHmmfdPvd_WCRzTMtE6-14">
          <mxGeometry x="110" y="70" width="120" height="60" as="geometry" />
        </mxCell>
        <mxCell id="VMHmmfdPvd_WCRzTMtE6-48" style="edgeStyle=orthogonalEdgeStyle;rounded=0;orthogonalLoop=1;jettySize=auto;html=1;entryX=0;entryY=0.5;entryDx=0;entryDy=0;" edge="1" parent="VMHmmfdPvd_WCRzTMtE6-14" source="VMHmmfdPvd_WCRzTMtE6-35" target="VMHmmfdPvd_WCRzTMtE6-47">
          <mxGeometry relative="1" as="geometry" />
        </mxCell>
        <mxCell id="VMHmmfdPvd_WCRzTMtE6-35" value="Escolha de preferencias de veiculos" style="rounded=1;whiteSpace=wrap;html=1;" vertex="1" parent="VMHmmfdPvd_WCRzTMtE6-14">
          <mxGeometry x="260" y="70" width="120" height="60" as="geometry" />
        </mxCell>
        <mxCell id="VMHmmfdPvd_WCRzTMtE6-47" value="Exibição de catalogo personalizado" style="rounded=1;whiteSpace=wrap;html=1;" vertex="1" parent="VMHmmfdPvd_WCRzTMtE6-14">
          <mxGeometry x="420" y="70" width="120" height="60" as="geometry" />
        </mxCell>
        <mxCell id="VMHmmfdPvd_WCRzTMtE6-16" value="Locador" style="swimlane;horizontal=0;direction=east;" vertex="1" parent="WIyWlLk6GJQsqaUBKTNV-1">
          <mxGeometry x="40" y="740" width="880" height="200" as="geometry" />
        </mxCell>
        <mxCell id="VMHmmfdPvd_WCRzTMtE6-23" value="" style="shape=umlActor;verticalLabelPosition=bottom;verticalAlign=top;html=1;" vertex="1" parent="VMHmmfdPvd_WCRzTMtE6-16">
          <mxGeometry x="40" y="80" width="30" height="60" as="geometry" />
        </mxCell>
        <mxCell id="VMHmmfdPvd_WCRzTMtE6-40" value="Cadastro" style="rounded=1;whiteSpace=wrap;html=1;" vertex="1" parent="VMHmmfdPvd_WCRzTMtE6-16">
          <mxGeometry x="110" y="80" width="120" height="60" as="geometry" />
        </mxCell>
        <mxCell id="VMHmmfdPvd_WCRzTMtE6-24" style="edgeStyle=orthogonalEdgeStyle;rounded=0;orthogonalLoop=1;jettySize=auto;html=1;exitX=0.5;exitY=0.5;exitDx=0;exitDy=0;exitPerimeter=0;entryX=0;entryY=0.5;entryDx=0;entryDy=0;" edge="1" parent="VMHmmfdPvd_WCRzTMtE6-16" source="VMHmmfdPvd_WCRzTMtE6-23" target="VMHmmfdPvd_WCRzTMtE6-40">
          <mxGeometry relative="1" as="geometry">
            <mxPoint x="70" y="109.57142857142844" as="targetPoint" />
          </mxGeometry>
        </mxCell>
        <mxCell id="VMHmmfdPvd_WCRzTMtE6-46" value="Elaboração do catalogo" style="rounded=1;whiteSpace=wrap;html=1;" vertex="1" parent="VMHmmfdPvd_WCRzTMtE6-16">
          <mxGeometry x="260" y="80" width="120" height="60" as="geometry" />
        </mxCell>
        <mxCell id="VMHmmfdPvd_WCRzTMtE6-50" value="" style="curved=1;endArrow=classic;html=1;rounded=0;entryX=0.25;entryY=1;entryDx=0;entryDy=0;exitX=0.5;exitY=1;exitDx=0;exitDy=0;" edge="1" parent="VMHmmfdPvd_WCRzTMtE6-16" source="VMHmmfdPvd_WCRzTMtE6-46" target="VMHmmfdPvd_WCRzTMtE6-46">
          <mxGeometry width="50" height="50" relative="1" as="geometry">
            <mxPoint x="240" y="200" as="sourcePoint" />
            <mxPoint x="290" y="150" as="targetPoint" />
            <Array as="points">
              <mxPoint x="290" y="200" />
              <mxPoint x="240" y="150" />
            </Array>
          </mxGeometry>
        </mxCell>
        <mxCell id="VMHmmfdPvd_WCRzTMtE6-51" value="Adicionar&lt;br&gt;veículo" style="edgeLabel;html=1;align=center;verticalAlign=middle;resizable=0;points=[];" vertex="1" connectable="0" parent="VMHmmfdPvd_WCRzTMtE6-50">
          <mxGeometry x="-0.0886" y="-4" relative="1" as="geometry">
            <mxPoint x="11" y="-14" as="offset" />
          </mxGeometry>
        </mxCell>
        <mxCell id="VMHmmfdPvd_WCRzTMtE6-17" value="Empresa" style="swimlane;" vertex="1" parent="WIyWlLk6GJQsqaUBKTNV-1">
          <mxGeometry x="40" y="400" width="880" height="240" as="geometry" />
        </mxCell>
        <mxCell id="VMHmmfdPvd_WCRzTMtE6-28" style="edgeStyle=orthogonalEdgeStyle;rounded=0;orthogonalLoop=1;jettySize=auto;html=1;exitX=1;exitY=0.5;exitDx=0;exitDy=0;entryX=0;entryY=0.5;entryDx=0;entryDy=0;" edge="1" parent="VMHmmfdPvd_WCRzTMtE6-17" source="VMHmmfdPvd_WCRzTMtE6-22" target="VMHmmfdPvd_WCRzTMtE6-27">
          <mxGeometry relative="1" as="geometry" />
        </mxCell>
        <mxCell id="VMHmmfdPvd_WCRzTMtE6-22" value="" style="ellipse;html=1;shape=endState;fillColor=#000000;strokeColor=#ff0000;" vertex="1" parent="VMHmmfdPvd_WCRzTMtE6-17">
          <mxGeometry x="20" y="120" width="30" height="30" as="geometry" />
        </mxCell>
        <mxCell id="VMHmmfdPvd_WCRzTMtE6-31" style="edgeStyle=orthogonalEdgeStyle;rounded=0;orthogonalLoop=1;jettySize=auto;html=1;entryX=0;entryY=0.5;entryDx=0;entryDy=0;" edge="1" parent="VMHmmfdPvd_WCRzTMtE6-17" source="VMHmmfdPvd_WCRzTMtE6-27" target="VMHmmfdPvd_WCRzTMtE6-30">
          <mxGeometry relative="1" as="geometry" />
        </mxCell>
        <mxCell id="VMHmmfdPvd_WCRzTMtE6-27" value="Checar dados cadastrais" style="rounded=1;whiteSpace=wrap;html=1;" vertex="1" parent="VMHmmfdPvd_WCRzTMtE6-17">
          <mxGeometry x="110" y="105" width="120" height="60" as="geometry" />
        </mxCell>
        <mxCell id="VMHmmfdPvd_WCRzTMtE6-30" value="Dados &lt;br&gt;validos" style="rhombus;whiteSpace=wrap;html=1;" vertex="1" parent="VMHmmfdPvd_WCRzTMtE6-17">
          <mxGeometry x="280" y="95" width="80" height="80" as="geometry" />
        </mxCell>
        <mxCell id="VMHmmfdPvd_WCRzTMtE6-29" style="edgeStyle=orthogonalEdgeStyle;rounded=0;orthogonalLoop=1;jettySize=auto;html=1;entryX=0.5;entryY=0;entryDx=0;entryDy=0;" edge="1" parent="WIyWlLk6GJQsqaUBKTNV-1" source="VMHmmfdPvd_WCRzTMtE6-20" target="VMHmmfdPvd_WCRzTMtE6-27">
          <mxGeometry relative="1" as="geometry" />
        </mxCell>
        <mxCell id="VMHmmfdPvd_WCRzTMtE6-32" style="edgeStyle=orthogonalEdgeStyle;rounded=0;orthogonalLoop=1;jettySize=auto;html=1;entryX=0.75;entryY=1;entryDx=0;entryDy=0;exitX=0.5;exitY=0;exitDx=0;exitDy=0;" edge="1" parent="WIyWlLk6GJQsqaUBKTNV-1" source="VMHmmfdPvd_WCRzTMtE6-30" target="VMHmmfdPvd_WCRzTMtE6-20">
          <mxGeometry relative="1" as="geometry">
            <mxPoint x="360.0000000000002" y="160" as="targetPoint" />
            <Array as="points">
              <mxPoint x="360" y="370" />
              <mxPoint x="240" y="370" />
            </Array>
          </mxGeometry>
        </mxCell>
        <mxCell id="VMHmmfdPvd_WCRzTMtE6-33" value="Não" style="edgeLabel;html=1;align=center;verticalAlign=middle;resizable=0;points=[];" vertex="1" connectable="0" parent="VMHmmfdPvd_WCRzTMtE6-32">
          <mxGeometry x="0.127" y="1" relative="1" as="geometry">
            <mxPoint x="1" y="-49" as="offset" />
          </mxGeometry>
        </mxCell>
        <mxCell id="VMHmmfdPvd_WCRzTMtE6-38" style="edgeStyle=orthogonalEdgeStyle;rounded=0;orthogonalLoop=1;jettySize=auto;html=1;entryX=0.5;entryY=1;entryDx=0;entryDy=0;" edge="1" parent="WIyWlLk6GJQsqaUBKTNV-1" source="VMHmmfdPvd_WCRzTMtE6-30" target="VMHmmfdPvd_WCRzTMtE6-35">
          <mxGeometry relative="1" as="geometry" />
        </mxCell>
        <mxCell id="VMHmmfdPvd_WCRzTMtE6-39" value="Sim" style="edgeLabel;html=1;align=center;verticalAlign=middle;resizable=0;points=[];" vertex="1" connectable="0" parent="VMHmmfdPvd_WCRzTMtE6-38">
          <mxGeometry x="0.1774" y="2" relative="1" as="geometry">
            <mxPoint y="11" as="offset" />
          </mxGeometry>
        </mxCell>
        <mxCell id="VMHmmfdPvd_WCRzTMtE6-41" style="edgeStyle=orthogonalEdgeStyle;rounded=0;orthogonalLoop=1;jettySize=auto;html=1;entryX=0.5;entryY=1;entryDx=0;entryDy=0;" edge="1" parent="WIyWlLk6GJQsqaUBKTNV-1" source="VMHmmfdPvd_WCRzTMtE6-40" target="VMHmmfdPvd_WCRzTMtE6-27">
          <mxGeometry relative="1" as="geometry" />
        </mxCell>
        <mxCell id="VMHmmfdPvd_WCRzTMtE6-42" style="edgeStyle=orthogonalEdgeStyle;rounded=0;orthogonalLoop=1;jettySize=auto;html=1;entryX=0.75;entryY=0;entryDx=0;entryDy=0;" edge="1" parent="WIyWlLk6GJQsqaUBKTNV-1" source="VMHmmfdPvd_WCRzTMtE6-30" target="VMHmmfdPvd_WCRzTMtE6-40">
          <mxGeometry relative="1" as="geometry">
            <Array as="points">
              <mxPoint x="360" y="690" />
              <mxPoint x="240" y="690" />
            </Array>
          </mxGeometry>
        </mxCell>
        <mxCell id="VMHmmfdPvd_WCRzTMtE6-43" value="Não" style="edgeLabel;html=1;align=center;verticalAlign=middle;resizable=0;points=[];" vertex="1" connectable="0" parent="VMHmmfdPvd_WCRzTMtE6-42">
          <mxGeometry x="-0.1268" y="2" relative="1" as="geometry">
            <mxPoint x="1" as="offset" />
          </mxGeometry>
        </mxCell>
        <mxCell id="VMHmmfdPvd_WCRzTMtE6-44" style="edgeStyle=orthogonalEdgeStyle;rounded=0;orthogonalLoop=1;jettySize=auto;html=1;" edge="1" parent="WIyWlLk6GJQsqaUBKTNV-1" source="VMHmmfdPvd_WCRzTMtE6-30">
          <mxGeometry relative="1" as="geometry">
            <mxPoint x="360" y="820" as="targetPoint" />
          </mxGeometry>
        </mxCell>
        <mxCell id="VMHmmfdPvd_WCRzTMtE6-45" value="Sim" style="edgeLabel;html=1;align=center;verticalAlign=middle;resizable=0;points=[];" vertex="1" connectable="0" parent="VMHmmfdPvd_WCRzTMtE6-44">
          <mxGeometry x="0.205" relative="1" as="geometry">
            <mxPoint as="offset" />
          </mxGeometry>
        </mxCell>
      </root>
    </mxGraphModel>
  </diagram>
</mxfile>
